<?xml version="1.0" encoding="UTF-8"?>
<!DOCTYPE svg PUBLIC "-//W3C//DTD SVG 1.1//EN" "http://www.w3.org/Graphics/SVG/1.1/DTD/svg11.dtd">
<!-- Creator: CorelDRAW X7 -->
<svg xmlns="http://www.w3.org/2000/svg" xml:space="preserve" width="178.568mm" height="73.0115mm" version="1.1" style="shape-rendering:geometricPrecision; text-rendering:geometricPrecision; image-rendering:optimizeQuality; fill-rule:evenodd; clip-rule:evenodd"
viewBox="0 0 17857 7301"
 xmlns:xlink="http://www.w3.org/1999/xlink">
 <defs>
  <style type="text/css">
   <![CDATA[
    .fil1 {fill:#ED2F59}
    .fil2 {fill:#FEFEFE;fill-rule:nonzero}
    .fil0 {fill:#FEFEFE;fill-rule:nonzero}
   ]]>
  </style>
 </defs>
 <g id="Layer_x0020_1">
  <metadata id="CorelCorpID_0Corel-Layer"/>
  <path class="fil0" d="M6083 4703c-158,144 -364,244 -617,301 -219,51 -495,76 -826,76 -82,0 -164,0 -246,0 -82,0 -164,0 -245,0 -30,0 -54,0 -71,0l0 1725 -1228 0 0 -4280c186,0 368,0 546,0 179,0 357,0 533,0 534,0 940,13 1218,41 277,27 498,88 662,181 101,57 193,124 274,202l0 1754zm-856 -916c0,-220 -83,-394 -248,-520 -166,-127 -361,-191 -585,-191 -99,0 -204,17 -316,51l0 1414c124,34 239,51 342,51 241,0 436,-70 584,-209 149,-140 223,-338 223,-596z"/>
  <path class="fil0" d="M8303 5362c-17,18 -35,36 -54,54 -243,230 -551,345 -924,345 -328,0 -617,-101 -867,-303 -250,-201 -375,-437 -375,-709l0 -2031 842 0 0 2010c0,173 62,322 188,450 126,126 274,190 444,190 167,0 297,-68 391,-204 94,-136 141,-299 141,-490l0 -1956 214 0 0 2644z"/>
  <polygon class="fil0" points="11862,6824 11074,6812 8956,3628 8956,6824 8303,6812 8303,2537 9744,2537 11210,4744 11210,3070 11862,3070 "/>
  <path class="fil0" d="M13742 3070l-351 0 0 475c-195,345 -306,744 -306,1168 0,425 111,823 306,1169l0 917 -1169 25 0 -3754 -1169 0 0 -533 3439 0c-284,128 -539,310 -750,533z"/>
  <path class="fil1" d="M15471 2328c1318,0 2386,1068 2386,2385 0,1318 -1068,2386 -2386,2386 -1317,0 -2386,-1068 -2386,-2386 0,-1317 1069,-2385 2386,-2385z"/>
  <path class="fil0" d="M0 2350l185 -286c191,86 390,149 597,189 207,40 436,60 689,60 500,0 926,-83 1277,-249l167 314c-235,235 -398,483 -491,745 -92,262 -138,662 -138,1198l0 537c0,666 37,1115 111,1347 74,231 240,458 499,680l-101 407 -102 -28 -167 -28 -231 -37c-537,-86 -916,-129 -1138,-129 -173,0 -321,17 -445,51 -123,34 -271,94 -444,180l-222 -333c161,-123 281,-270 361,-440 80,-169 142,-411 185,-726l56 -546 0 -574c0,-98 0,-169 0,-212 0,-229 -13,-414 -37,-556l-10 -74 -92 -435c-43,-234 -77,-388 -102,-462 -24,-74 -74,-170 -148,-287 -31,-50 -68,-99 -111,-148 -43,-50 -92,-102 -148,-158z"/>
  <path class="fil2" d="M333 824c56,-278 216,-500 481,-667 173,-105 355,-157 546,-157 204,0 390,48 560,144 170,95 301,225 393,388 93,164 139,338 139,523 0,197 -49,379 -148,546 -99,167 -236,294 -412,384 -175,89 -347,134 -513,134 -216,0 -410,-63 -583,-190 -173,-126 -306,-303 -398,-532 -56,-142 -83,-271 -83,-388 0,-37 6,-99 18,-185z"/>
 </g>
</svg>
